<?xml version="1.0" encoding="utf-8"?>
<!-- Generator: Adobe Illustrator 27.0.0, SVG Export Plug-In . SVG Version: 6.00 Build 0)  -->
<svg version="1.1" id="Layer_1" xmlns="http://www.w3.org/2000/svg" xmlns:xlink="http://www.w3.org/1999/xlink" x="0px" y="0px"
	 viewBox="0 0 571 535" style="enable-background:new 0 0 571 535;" xml:space="preserve">
<style type="text/css">
	.st0{fill:#F7941D;stroke:#FFDE17;stroke-width:3;stroke-miterlimit:10;}
	.st1{stroke:#414042;stroke-width:3;stroke-miterlimit:10;}
	.st2{display:none;fill:none;stroke:#000000;stroke-miterlimit:10;}
</style>
<path class="st0" d="M559.5,387.2c-5.8,9.4-12.2,18.5-19.1,27.1c-53.7,66.8-141.6,110.3-241,110.3c-123.6,0-229.6-67.4-273.9-163
	C72.6,442.4,168.4,497.8,279,497.8c96.9,0,182.5-42.5,233.9-107.5l-3.8-3.3l-0.8-0.7l-4.6-4l-2.8-2.5l-0.4-0.3l-1.3-1.1v0
	l-47.7-41.9L352,249.2h50.4l64.9,57l51.6,45.3l0.1,0.1l2.1,1.8l2.9,2.5l4.9,4.3l2.9,2.6l3.7,3.2l0.3,0.3l9.2,8.1l0.7,0.6
	L559.5,387.2z"/>
<path class="st1" d="M545.7,249.2c0,21-3.1,41.4-9.1,60.8l-6.5,18.2c-1.3,3.1-2.6,6.2-4,9.3l-0.2,0.4l-53.5-46.7
	c3.8-13.4,5.8-27.5,5.8-41.9c0-48.3-22.3-91.9-58.3-123.6c-23.6-20.7-53.2-36.3-86.2-44.5c-1.2-0.3-2.4-0.6-3.7-0.9
	c-4.7-1.1-9.5-2-14.4-2.8l-0.1,139.9l-20.4-17.8v0l-32.4-28.3l-16.9-14.8l0.3-79.6c-5.2,0.7-10.3,1.7-15.4,2.8
	c-0.2,0.1-0.5,0.1-0.7,0.2c-2.2,0.5-4.3,1-6.4,1.5c-3.1,0.8-6.2,1.7-9.2,2.6c-7.8,2.3-15.4,5.1-22.6,8.2c-4.2,1.8-8.2,3.7-12.2,5.7
	c-5.3,2.7-10.4,5.6-15.4,8.7l66.7,58.5l15,13.2l12.8,11.2l4.3,3.7l227.2,199.4c-3.3,3.8-6.8,7.5-10.4,11l-0.2,0.3l-0.5,0.5l-0.1,0.2
	c-3.6,3.6-7.4,7.1-11.2,10.5L465,417c-2.6,2.2-5.3,4.4-8,6.5c-0.5,0.4-0.9,0.7-1.3,1.1c-4.2,3.2-8.4,6.3-12.8,9.3
	c-0.8,0.6-1.6,1.1-2.4,1.7c-1.4,0.9-2.8,1.8-4.2,2.7c-1.4,0.9-2.9,1.8-4.3,2.7c-1.1,0.7-2.3,1.4-3.5,2.1c-1.7,1-3.5,2-5.2,3
	c-2.3,1.3-4.7,2.7-7.2,3.9c-8.3,4.4-16.9,8.4-25.8,11.9c-2.7,1.1-5.5,2.1-8.2,3.1c-1.1,0.4-2.2,0.8-3.4,1.2c-9.1,3.2-18.5,6-28,8.3
	c-8.2,2-16.5,3.7-24.9,5c-2.1,0.3-4.1,0.6-6.2,0.9c-1.4,0.2-2.8,0.4-4.2,0.5c-0.9,0.1-1.8,0.2-2.7,0.3c-0.9,0.1-1.8,0.2-2.7,0.3
	c0,0-0.1,0-0.1,0c-1.7,0.2-3.3,0.3-5,0.5h-0.1c-0.2,0-0.4,0-0.6,0.1c-1.3,0.1-2.7,0.2-4,0.3c-2.1,0.2-4.3,0.3-6.5,0.4
	c-4.9,0.2-9.8,0.4-14.7,0.4c-1.9,0-3.9,0-5.8-0.1c-3.5-0.1-7-0.2-10.5-0.4c-6.1-0.3-12.1-0.8-18.1-1.5c-1.9-0.2-3.8-0.5-5.7-0.7
	c-1.1-0.1-2.3-0.3-3.4-0.5c-1.6-0.2-3.2-0.5-4.8-0.7c-4.5-0.7-8.9-1.5-13.3-2.5l-0.5-0.1l-0.3-0.1c-4.1-0.9-8.2-1.8-12.2-2.8
	c-7.4-1.9-14.7-4.1-21.8-6.5l-1.3-0.3l-2.4-0.9c-4-1.4-7.9-2.9-11.8-4.5c-11-4.5-21.7-9.6-31.8-15.3l-0.3-0.2
	c-4.9-2.8-9.8-5.7-14.5-8.8c-6.2-4.1-12.3-8.3-18.1-12.9c-3.3-2.6-6.5-5.2-9.7-7.9l0,0c-0.8-0.6-1.5-1.3-2.2-1.9
	c-3.9-3.4-7.6-6.9-11.2-10.5c-8.3-8.3-16-17-22.9-26.3c-7.4-9.9-14-20.3-19.7-31.2c-1.7-3.2-3.3-6.5-4.8-9.8
	c-3.3-7.3-6.3-14.7-8.8-22.3c-4.1-12.3-7-25-8.7-38c-1.2-9-1.8-18.1-1.8-27.4v-2.1l0-0.1c0.1-10.7,1-21.2,2.7-31.5
	c0.4-2.5,0.9-4.9,1.3-7.4c1-4.9,2.2-9.8,3.5-14.6l0-0.1c3.1-11.1,7.1-21.9,11.9-32.3c0.3-0.6,0.6-1.2,0.9-1.9c1.3-2.7,2.6-5.3,4-8
	c4.1-7.8,8.6-15.3,13.6-22.6v0l5.2-7.6l49.2,43.5c-1.6,2.6-3.2,5.2-4.7,7.8c-5.9,10.6-10.7,21.8-14.1,33.5
	c-4,13.8-6.1,28.3-6.1,43.3c0,48.3,22.3,91.9,58.3,123.6c23.3,20.5,52.4,35.9,85,44.2c2.5,0.6,5,1.2,7.5,1.8c4.7,1,9.4,1.9,14.2,2.6
	c0.2-45.5,0.3-91.1,0.5-136.7c5.6,4.8,11.1,9.6,16.7,14.4l0.7,0.6l31.8,27.5l21,18.1l0,75.7c3.7-0.6,7.4-1.3,11-2.1
	c0.8-0.2,1.6-0.3,2.4-0.5c1.2-0.3,2.3-0.5,3.5-0.8c11.8-2.9,23.3-6.7,34.1-11.4c2.7-1.1,5.3-2.3,7.8-3.6c1.6-0.8,3.3-1.6,4.9-2.4
	c5.3-2.7,10.4-5.6,15.4-8.7L327.5,333l-11.8-10.3l-19.4-17l-1.5-1.3l-15.6-13.6l-11.2-9.7l-5.2-4.5l-7.4-6.5l-9.9-8.6l-14-12.2
	l-0.7-0.6l-114.5-100L68,106.3c3.6-4.2,7.4-8.2,11.4-12.1c3.6-3.6,7.4-7.1,11.2-10.5c1.1-1,2.2-1.9,3.3-2.9c2.7-2.2,5.3-4.4,8.1-6.6
	c0.2-0.1,0.3-0.3,0.5-0.4c4.3-3.4,8.8-6.6,13.3-9.7c3.3-2.2,6.6-4.4,10-6.5c1.5-1,3.1-1.9,4.6-2.8c3.8-2.2,7.6-4.4,11.5-6.4
	c5.4-2.8,10.9-5.5,16.5-8c1.4-0.6,2.9-1.3,4.3-1.9c1.8-0.8,3.7-1.5,5.5-2.3c2.7-1.1,5.5-2.1,8.3-3.2c0.8-0.3,1.6-0.6,2.4-0.9
	c8.5-3,17.3-5.7,26.3-8c3.3-0.8,6.6-1.6,9.9-2.3c5.2-1.1,10.4-2.1,15.7-2.9c2.1-0.3,4.1-0.6,6.2-0.9c3.1-0.4,6.2-0.8,9.4-1.2
	c5.4-0.6,10.9-1,16.4-1.3c5.4-0.3,10.8-0.4,16.4-0.4c5.7,0,11.3,0.2,16.9,0.5c6.6,0.4,13.2,0.9,19.7,1.7c5.1,0.6,10,1.3,15,2.2
	c7.4,1.3,14.6,2.8,21.7,4.6c9.2,2.3,18.1,5,26.9,8.1c3.8,1.4,7.6,2.8,11.3,4.3c7.3,2.9,14.4,6.2,21.4,9.7c5.6,2.8,11,5.8,16.4,9
	c6.8,4,13.3,8.3,19.6,12.9c2.6,1.9,5.2,3.8,7.7,5.7c4.1,3.2,8.1,6.5,11.9,9.9c1.5,1.3,3,2.7,4.5,4c2.3,2.1,4.5,4.2,6.6,6.4
	c1.5,1.5,3.1,3,4.6,4.6c11.4,11.9,21.5,24.9,30.1,38.7c2.9,4.6,5.6,9.3,8.1,14.1c1.7,3.3,3.3,6.5,4.9,9.8
	C538.8,188.5,545.7,218.1,545.7,249.2z"/>
<path class="st2" d="M439.1,923.2"/>
</svg>
